<svg xmlns="http://www.w3.org/2000/svg" width="1100" height="658" viewBox="0 0 1100 658" role="img" aria-labelledby="title desc"><title id="title">Engineering impact at a glance</title><desc id="desc">20+ years building software; hundreds of thousands of record histories; a SaaS launch from zero in July 2024; 13,573 GitHub contributions; 1,788 authored PRs merged in the dated creation cohort; 16 years of Java experience reported in December 2025.</desc><g font-family="-apple-system, BlinkMacSystemFont, Segoe UI, Arial, sans-serif"><rect x="0" y="0" width="1100" height="658" rx="20" fill="#0b1220" /><text x="36" y="44" font-size="20" fill="#a7b8ce" font-weight="700" letter-spacing="2">PROVEN WORK. REAL SCALE.</text><rect x="28" y="68" width="510" height="176" rx="12" fill="#111e30" /><rect x="48" y="90" width="4" height="130" rx="2" fill="#83f2c4" /><text x="70" y="145" font-size="62" fill="#83f2c4" font-weight="750" >20+</text><text x="71" y="183" font-size="18" fill="#f2f6fc" font-weight="650" >YEARS BUILDING SOFTWARE</text><text x="71" y="213" font-size="16" fill="#a7b8ce" font-weight="400" >Engineering career started in 2004</text><rect x="562" y="68" width="510" height="176" rx="12" fill="#111e30" /><rect x="582" y="90" width="4" height="130" rx="2" fill="#82b8ff" /><text x="604" y="145" font-size="62" fill="#82b8ff" font-weight="750" >100Ks</text><text x="605" y="183" font-size="18" fill="#f2f6fc" font-weight="650" >RECORD HISTORIES</text><text x="605" y="213" font-size="16" fill="#a7b8ce" font-weight="400" >MySQL versioning · hundreds of thousands</text><rect x="28" y="262" width="510" height="176" rx="12" fill="#111e30" /><rect x="48" y="284" width="4" height="130" rx="2" fill="#ffd59a" /><text x="70" y="339" font-size="62" fill="#ffd59a" font-weight="750" >0 → 1</text><text x="71" y="377" font-size="18" fill="#f2f6fc" font-weight="650" >SAAS PRODUCT LAUNCH</text><text x="71" y="407" font-size="16" fill="#a7b8ce" font-weight="400" >Go backend + Rails BFF · July 2024</text><rect x="562" y="262" width="510" height="176" rx="12" fill="#111e30" /><rect x="582" y="284" width="4" height="130" rx="2" fill="#83f2c4" /><text x="604" y="339" font-size="62" fill="#83f2c4" font-weight="750" >13,573</text><text x="605" y="377" font-size="18" fill="#f2f6fc" font-weight="650" >GITHUB CONTRIBUTIONS</text><text x="605" y="407" font-size="16" fill="#a7b8ce" font-weight="400" >Rolling year ending Sep 29, 2026</text><rect x="28" y="456" width="510" height="176" rx="12" fill="#111e30" /><rect x="48" y="478" width="4" height="130" rx="2" fill="#83f2c4" /><text x="70" y="533" font-size="62" fill="#83f2c4" font-weight="750" >1,788</text><text x="71" y="571" font-size="18" fill="#f2f6fc" font-weight="650" >AUTHORED PRS MERGED</text><text x="71" y="601" font-size="16" fill="#a7b8ce" font-weight="400" >Sep 2025–Sep 2026 creation cohort</text><rect x="562" y="456" width="510" height="176" rx="12" fill="#111e30" /><rect x="582" y="478" width="4" height="130" rx="2" fill="#82b8ff" /><text x="604" y="533" font-size="62" fill="#82b8ff" font-weight="750" >16 years</text><text x="605" y="571" font-size="18" fill="#f2f6fc" font-weight="650" >JAVA ENGINEERING</text><text x="605" y="601" font-size="16" fill="#a7b8ce" font-weight="400" >Reported experience · December 2025</text></g></svg>
